<svg width="24" height="24" viewBox="0 0 24 24" fill="none" xmlns="http://www.w3.org/2000/svg">
<path d="M21.2995 7.57969H15.7195C15.3295 7.57969 15.0195 7.26969 15.0195 6.87969C15.0195 6.48969 15.3295 6.17969 15.7195 6.17969H21.2995C21.6895 6.17969 21.9995 6.48969 21.9995 6.87969C21.9995 7.26969 21.6895 7.57969 21.2995 7.57969Z" fill="#292D32"/>
<path d="M6.42 7.57969H2.7C2.31 7.57969 2 7.26969 2 6.87969C2 6.48969 2.31 6.17969 2.7 6.17969H6.42C6.81 6.17969 7.12 6.48969 7.12 6.87969C7.12 7.26969 6.8 7.57969 6.42 7.57969Z" fill="#292D32"/>
<path d="M13.5895 6.87969C13.5895 8.78507 12.0448 10.3297 10.1395 10.3297C8.23407 10.3297 6.68945 8.78507 6.68945 6.87969C6.68945 4.97431 8.23407 3.42969 10.1395 3.42969C12.0448 3.42969 13.5895 4.97431 13.5895 6.87969Z" stroke="black"/>
<path d="M21.3009 17.8102H17.5809C17.1909 17.8102 16.8809 17.5002 16.8809 17.1102C16.8809 16.7202 17.1909 16.4102 17.5809 16.4102H21.3009C21.6909 16.4102 22.0009 16.7202 22.0009 17.1102C22.0009 17.5002 21.6909 17.8102 21.3009 17.8102Z" fill="#292D32"/>
<path d="M8.28 17.8102H2.7C2.31 17.8102 2 17.5002 2 17.1102C2 16.7202 2.31 16.4102 2.7 16.4102H8.28C8.67 16.4102 8.98 16.7202 8.98 17.1102C8.98 17.5002 8.66 17.8102 8.28 17.8102Z" fill="#292D32"/>
<path d="M17.3102 17.1199C17.3102 19.0253 15.7655 20.5699 13.8602 20.5699C11.9548 20.5699 10.4102 19.0253 10.4102 17.1199C10.4102 15.2145 11.9548 13.6699 13.8602 13.6699C15.7655 13.6699 17.3102 15.2145 17.3102 17.1199Z" stroke="black"/>
</svg>
