<svg width="38" height="38" viewBox="0 0 38 38" fill="none" xmlns="http://www.w3.org/2000/svg">
<path d="M34.865 26.6316L29.9091 15.0416C29.0066 12.9199 27.6608 11.7166 26.125 11.6374C24.605 11.5583 23.1325 12.6191 22.0083 14.6458L19 20.0449C18.3666 21.1849 17.4641 21.8658 16.4825 21.9449C15.485 22.0399 14.4875 21.5174 13.68 20.4883L13.3316 20.0449C12.2075 18.6358 10.8141 17.9549 9.38914 18.0974C7.96414 18.2399 6.74497 19.2216 5.93747 20.8208L3.19831 26.2833C2.21664 28.2624 2.31164 30.5583 3.46747 32.4266C4.62331 34.2949 6.63414 35.4191 8.83497 35.4191H29.0383C31.16 35.4191 33.1391 34.3583 34.3108 32.5849C35.5141 30.8116 35.7041 28.5791 34.865 26.6316Z" fill="#0F4DDE" fill-opacity="0.6"/>
<path d="M11.0359 13.2683C13.9915 13.2683 16.3875 10.8723 16.3875 7.91661C16.3875 4.96096 13.9915 2.56494 11.0359 2.56494C8.08023 2.56494 5.6842 4.96096 5.6842 7.91661C5.6842 10.8723 8.08023 13.2683 11.0359 13.2683Z" fill="#0F4DDE" fill-opacity="0.6"/>
</svg>
