<svg width="209" height="44" viewBox="0 0 209 44" fill="none" xmlns="http://www.w3.org/2000/svg">
<path d="M120.05 16.0376C119.977 15.8154 119.844 15.618 119.665 15.4678C119.486 15.3175 119.269 15.2204 119.037 15.1876L109.425 13.7501L105.125 5.00006C105.023 4.78872 104.863 4.61049 104.664 4.48578C104.465 4.36107 104.235 4.29492 104 4.29492C103.765 4.29492 103.535 4.36107 103.336 4.48578C103.137 4.61049 102.977 4.78872 102.875 5.00006L98.5749 13.7501L88.9999 15.1876C88.77 15.221 88.5539 15.3178 88.3759 15.4673C88.1979 15.6167 88.0651 15.8128 87.9924 16.0335C87.9197 16.2542 87.91 16.4908 87.9643 16.7167C88.0186 16.9427 88.1349 17.149 88.2999 17.3126L95.2499 24.1001L93.5874 33.7501C93.5626 33.9745 93.599 34.2015 93.6928 34.4069C93.7866 34.6123 93.9343 34.7884 94.1202 34.9166C94.3061 35.0448 94.5232 35.1203 94.7485 35.135C94.9739 35.1497 95.199 35.103 95.3999 35.0001L104 30.4751L112.6 35.0001C112.801 35.103 113.026 35.1497 113.251 35.135C113.477 35.1203 113.694 35.0448 113.88 34.9166C114.066 34.7884 114.213 34.6123 114.307 34.4069C114.401 34.2015 114.437 33.9745 114.412 33.7501L112.75 24.1001L119.712 17.3126C119.882 17.1526 120.003 16.9485 120.063 16.7232C120.123 16.4979 120.118 16.2604 120.05 16.0376Z" fill="url(#paint0_linear_939_60873)"/>
<path d="M36.0499 16.0376C35.9775 15.8154 35.8442 15.618 35.6652 15.4678C35.4863 15.3175 35.2688 15.2204 35.0374 15.1876L25.4249 13.7501L21.1249 5.00006C21.0226 4.78872 20.8628 4.61049 20.6638 4.48578C20.4648 4.36107 20.2348 4.29492 19.9999 4.29492C19.7651 4.29492 19.535 4.36107 19.3361 4.48578C19.1371 4.61049 18.9773 4.78872 18.8749 5.00006L14.5749 13.7501L4.99993 15.1876C4.76997 15.221 4.55387 15.3178 4.37591 15.4673C4.19794 15.6167 4.06515 15.8128 3.99244 16.0335C3.91974 16.2542 3.91 16.4908 3.96431 16.7167C4.01863 16.9427 4.13485 17.149 4.29993 17.3126L11.2499 24.1001L9.58743 33.7501C9.56258 33.9745 9.59899 34.2015 9.69279 34.4069C9.78659 34.6123 9.93428 34.7884 10.1202 34.9166C10.3061 35.0448 10.5232 35.1203 10.7485 35.135C10.9739 35.1497 11.199 35.103 11.3999 35.0001L19.9999 30.4751L28.5999 35.0001C28.8009 35.103 29.026 35.1497 29.2513 35.135C29.4767 35.1203 29.6938 35.0448 29.8797 34.9166C30.0656 34.7884 30.2133 34.6123 30.3071 34.4069C30.4009 34.2015 30.4373 33.9745 30.4124 33.7501L28.7499 24.1001L35.7124 17.3126C35.882 17.1526 36.0034 16.9485 36.063 16.7232C36.1227 16.4979 36.1181 16.2604 36.0499 16.0376Z" fill="url(#paint1_linear_939_60873)"/>
<g filter="url(#filter0_d_939_60873)">
<path d="M160.89 16.1766L160.89 16.1766L151.277 14.7391L150.759 14.6615L150.527 14.1911L146.227 5.44111L146.225 5.43596L146.225 5.43595C146.204 5.39368 146.172 5.35804 146.133 5.33309C146.093 5.30815 146.047 5.29492 146 5.29492C145.953 5.29492 145.907 5.30815 145.867 5.33309L145.336 4.48578L145.867 5.33309C145.827 5.35803 145.795 5.39368 145.775 5.43595L145.772 5.44112L145.772 5.44111L141.472 14.1911L141.241 14.6612L140.723 14.739L131.148 16.1765L131.144 16.1772L131.144 16.1772C131.098 16.1838 131.055 16.2032 131.019 16.2331C130.983 16.263 130.957 16.3022 130.942 16.3463C130.928 16.3905 130.926 16.4378 130.937 16.483C130.947 16.5275 130.97 16.5682 131.002 16.6006C131.003 16.6011 131.003 16.6016 131.004 16.6022L137.949 23.3846L138.325 23.7519L138.235 24.2698L136.58 33.8787C136.579 33.9175 136.586 33.9561 136.602 33.9915C136.621 34.0326 136.651 34.0678 136.688 34.0934C136.725 34.1191 136.769 34.1342 136.814 34.1371C136.858 34.14 136.901 34.1312 136.941 34.1116L145.534 29.5901L146 29.3451L146.466 29.5901L155.059 34.1116C155.098 34.1312 155.142 34.14 155.186 34.1371C155.231 34.1342 155.275 34.1191 155.312 34.0934C155.349 34.0678 155.379 34.0326 155.397 33.9915C155.414 33.9561 155.421 33.9175 155.42 33.8787L153.764 24.2698L153.675 23.7513L154.052 23.384L161.014 16.5965L161.02 16.5908L161.026 16.5852C161.06 16.5532 161.084 16.5124 161.096 16.4673L160.89 16.1766ZM160.89 16.1766L160.897 16.1776M160.89 16.1766L160.897 16.1776M160.897 16.1776C160.943 16.1842 160.986 16.2036 161.022 16.2336C161.056 16.2617 161.081 16.2981 161.096 16.339M160.897 16.1776L161.096 16.339M161.096 16.339C161.107 16.3809 161.107 16.4252 161.096 16.4673L161.096 16.339Z" stroke="black" stroke-opacity="0.6" stroke-width="2"/>
</g>
<g filter="url(#filter1_d_939_60873)">
<path d="M202.89 16.1766L202.89 16.1766L193.277 14.7391L192.759 14.6615L192.527 14.1911L188.227 5.44111L188.225 5.43596L188.225 5.43595C188.204 5.39368 188.172 5.35804 188.133 5.33309C188.093 5.30815 188.047 5.29492 188 5.29492C187.953 5.29492 187.907 5.30815 187.867 5.33309L187.336 4.48578L187.867 5.33309C187.827 5.35803 187.795 5.39368 187.775 5.43595L187.772 5.44112L187.772 5.44111L183.472 14.1911L183.241 14.6612L182.723 14.739L173.148 16.1765L173.144 16.1772L173.144 16.1772C173.098 16.1838 173.055 16.2032 173.019 16.2331C172.983 16.263 172.957 16.3022 172.942 16.3463C172.928 16.3905 172.926 16.4378 172.937 16.483C172.947 16.5275 172.97 16.5682 173.002 16.6006C173.003 16.6011 173.003 16.6016 173.004 16.6022L179.949 23.3846L180.325 23.7519L180.235 24.2698L178.58 33.8787C178.579 33.9175 178.586 33.9561 178.602 33.9915C178.621 34.0326 178.651 34.0678 178.688 34.0934C178.725 34.1191 178.769 34.1342 178.814 34.1371C178.858 34.14 178.901 34.1312 178.941 34.1116L187.534 29.5901L188 29.3451L188.466 29.5901L197.059 34.1116C197.098 34.1312 197.142 34.14 197.186 34.1371C197.231 34.1342 197.275 34.1191 197.312 34.0934C197.349 34.0678 197.379 34.0326 197.397 33.9915C197.414 33.9561 197.421 33.9175 197.42 33.8787L195.764 24.2698L195.675 23.7513L196.052 23.384L203.014 16.5965L203.02 16.5908L203.026 16.5852C203.06 16.5532 203.084 16.5124 203.096 16.4673L202.89 16.1766ZM202.89 16.1766L202.897 16.1776M202.89 16.1766L202.897 16.1776M202.897 16.1776C202.943 16.1842 202.986 16.2036 203.022 16.2336C203.056 16.2617 203.081 16.2981 203.096 16.339M202.897 16.1776L203.096 16.339M203.096 16.339C203.107 16.3809 203.107 16.4252 203.096 16.4673L203.096 16.339Z" stroke="black" stroke-opacity="0.6" stroke-width="2"/>
</g>
<path d="M78.0499 16.0376C77.9775 15.8154 77.8442 15.618 77.6652 15.4678C77.4863 15.3175 77.2688 15.2204 77.0374 15.1876L67.4249 13.7501L63.1249 5.00006C63.0226 4.78872 62.8628 4.61049 62.6638 4.48578C62.4648 4.36107 62.2348 4.29492 61.9999 4.29492C61.7651 4.29492 61.535 4.36107 61.3361 4.48578C61.1371 4.61049 60.9773 4.78872 60.8749 5.00006L56.5749 13.7501L46.9999 15.1876C46.77 15.221 46.5539 15.3178 46.3759 15.4673C46.1979 15.6167 46.0651 15.8128 45.9924 16.0335C45.9197 16.2542 45.91 16.4908 45.9643 16.7167C46.0186 16.9427 46.1349 17.149 46.2999 17.3126L53.2499 24.1001L51.5874 33.7501C51.5626 33.9745 51.599 34.2015 51.6928 34.4069C51.7866 34.6123 51.9343 34.7884 52.1202 34.9166C52.3061 35.0448 52.5232 35.1203 52.7485 35.135C52.9739 35.1497 53.199 35.103 53.3999 35.0001L61.9999 30.4751L70.5999 35.0001C70.8009 35.103 71.026 35.1497 71.2513 35.135C71.4767 35.1203 71.6938 35.0448 71.8797 34.9166C72.0656 34.7884 72.2133 34.6123 72.3071 34.4069C72.4009 34.2015 72.4373 33.9745 72.4124 33.7501L70.7499 24.1001L77.7124 17.3126C77.882 17.1526 78.0034 16.9485 78.063 16.7232C78.1227 16.4979 78.1181 16.2604 78.0499 16.0376Z" fill="url(#paint2_linear_939_60873)"/>
<defs>
<filter id="filter0_d_939_60873" x="122" y="0" width="48" height="48" filterUnits="userSpaceOnUse" color-interpolation-filters="sRGB">
<feFlood flood-opacity="0" result="BackgroundImageFix"/>
<feColorMatrix in="SourceAlpha" type="matrix" values="0 0 0 0 0 0 0 0 0 0 0 0 0 0 0 0 0 0 127 0" result="hardAlpha"/>
<feOffset dy="4"/>
<feGaussianBlur stdDeviation="2"/>
<feComposite in2="hardAlpha" operator="out"/>
<feColorMatrix type="matrix" values="0 0 0 0 0 0 0 0 0 0 0 0 0 0 0 0 0 0 0.25 0"/>
<feBlend mode="normal" in2="BackgroundImageFix" result="effect1_dropShadow_939_60873"/>
<feBlend mode="normal" in="SourceGraphic" in2="effect1_dropShadow_939_60873" result="shape"/>
</filter>
<filter id="filter1_d_939_60873" x="164" y="0" width="48" height="48" filterUnits="userSpaceOnUse" color-interpolation-filters="sRGB">
<feFlood flood-opacity="0" result="BackgroundImageFix"/>
<feColorMatrix in="SourceAlpha" type="matrix" values="0 0 0 0 0 0 0 0 0 0 0 0 0 0 0 0 0 0 127 0" result="hardAlpha"/>
<feOffset dy="4"/>
<feGaussianBlur stdDeviation="2"/>
<feComposite in2="hardAlpha" operator="out"/>
<feColorMatrix type="matrix" values="0 0 0 0 0 0 0 0 0 0 0 0 0 0 0 0 0 0 0.25 0"/>
<feBlend mode="normal" in2="BackgroundImageFix" result="effect1_dropShadow_939_60873"/>
<feBlend mode="normal" in="SourceGraphic" in2="effect1_dropShadow_939_60873" result="shape"/>
</filter>
<linearGradient id="paint0_linear_939_60873" x1="104.017" y1="4.29492" x2="104.017" y2="35.1376" gradientUnits="userSpaceOnUse">
<stop stop-color="#F5BD50"/>
<stop offset="1" stop-color="#F58444"/>
</linearGradient>
<linearGradient id="paint1_linear_939_60873" x1="20.0172" y1="4.29492" x2="20.0172" y2="35.1376" gradientUnits="userSpaceOnUse">
<stop stop-color="#F5BD50"/>
<stop offset="1" stop-color="#F58444"/>
</linearGradient>
<linearGradient id="paint2_linear_939_60873" x1="62.0172" y1="4.29492" x2="62.0172" y2="35.1376" gradientUnits="userSpaceOnUse">
<stop stop-color="#F5BD50"/>
<stop offset="1" stop-color="#F58444"/>
</linearGradient>
</defs>
</svg>
